<?xml version="1.0" encoding="UTF-8"?>
<svg id="Calque_2" data-name="Calque 2" xmlns="http://www.w3.org/2000/svg" viewBox="0 0 223.45 224.66">
  <defs>
    <style>
      .cls-1 {
        fill: #559050;
      }

      .cls-1, .cls-2, .cls-3, .cls-4, .cls-5 {
        stroke-width: 0px;
      }

      .cls-2 {
        fill: #1b2f1a;
      }

      .cls-6 {
        fill: #1d1d1b;
        font-family: NiagaraEngraved-Reg, 'Niagara Engraved';
        font-size: 26px;
      }

      .cls-3 {
        fill: #8cbf38;
      }

      .cls-4 {
        fill: #9fc860;
      }

      .cls-5 {
        fill: #8ec260;
      }
    </style>
  </defs>
  <g id="Calque_1-2" data-name="Calque 1">
    <g>
      <path class="cls-5" d="m37.82,21.99c4.57,15.39,13.85,30.57,11.49,46.98-16.43-14.4-23.09-26.15-11.49-46.98Z"/>
      <path class="cls-5" d="m137.27,22.49c12.18,20.07,5.34,34.23-11.99,47.48-1.83-16.94,9.6-31.1,11.99-47.48Z"/>
      <path class="cls-5" d="m100.29,1.5c15.28,10.08,13.59,27.92,9.5,43.48-10.88-11.69-14.26-28.55-9.5-43.48Z"/>
      <path class="cls-5" d="m76.3,0c2.97-.24,2.6,17.96-1.25,28.24-1.46,3.91-6.82,12.43-9.25,16.74-3.68-13.94-5.79-21.28,1.75-34.23C68.35,9.38,75.5.07,76.3,0Z"/>
    </g>
    <g>
      <path class="cls-2" d="m189.5,81.96c10.94.32,22.92-1.19,29.99,9.75,16.88,26.14-24.05,68.06-49.73,72.22-8.99,11.69-19.37,23.05-33.23,28.99-3.83.89-74.31,1.06-78.71.5-12.16-1.54-31.55-19.99-38.73-29.74C.77,138.82-1.37,112.66.59,82.71c62.86.1,126.07-2.58,188.91-.75Z"/>
      <path class="cls-1" d="m120.03,184.91c-12.89.61-32.12.54-45.48.5-39.11-9.85-64.68-48.7-60.72-88.46h158.42c6.48,39.29-15.78,73.76-52.22,87.96Z"/>
      <path class="cls-3" d="m120.03,184.91c36.44-14.2,58.7-48.67,52.22-87.96H13.83c-3.96,39.76,21.61,78.61,60.72,88.46-3.94-.01-7.81.64-11.74,0C26.21,170.81,3.21,129.04,10.34,90.46h163.92c12.92,35.08-10.52,79.91-44.48,93.95-3.23.79-6.49.35-9.75.5Z"/>
      <path class="cls-4" d="m192.5,90.96c.34,12.01-.28,28.52-7.5,38.48,2.28-12.67,2.05-25.52,0-38.23.36-.5,6.34-.21,7.5-.25Z"/>
    </g>
    <text class="cls-6" transform="translate(62.47 219.57)"><tspan x="0" y="0">Thé tip top</tspan></text>
  </g>
</svg>